PathFileType	4	(X/Y/Z)	c:/Users/goper/Files/vsCode/490R/osim_files/C06/C06_Static_01.trc
DataRate	CameraRate	NumFrames	NumMarkers	Units                	OrigDataRate	OrigDataStartFrame	OrigNumFrames
250.00	250.00	7	36	mm	250.0	215	1714
                Frame#	Time	LPSIS			LASIS			LTH1			LTH2			LTH3			LTH4			LLFE			LMFE			LSH1			LSH2			LSH3			LSH4			LLMAL			LMMAL			LCAL			LMTP5			LTOE			LMTP1			RPSIS			RASIS			RTH1			RTH2			RTH3			RTH4			RLFE			RMFE			RSH1			RSH2			RSH3			RSH4			RLMAL			RMMAL			RCAL			RMTP1			RTOE			RMTP5		
		X1	Y1	Z1	X2	Y2	Z2	X3	Y3	Z3	X4	Y4	Z4	X5	Y5	Z5	X6	Y6	Z6	X7	Y7	Z7	X8	Y8	Z8	X9	Y9	Z9	X10	Y10	Z10	X11	Y11	Z11	X12	Y12	Z12	X13	Y13	Z13	X14	Y14	Z14	X15	Y15	Z15	X16	Y16	Z16	X17	Y17	Z17	X18	Y18	Z18	X19	Y19	Z19	X20	Y20	Z20	X21	Y21	Z21	X22	Y22	Z22	X23	Y23	Z23	X24	Y24	Z24	X25	Y25	Z25	X26	Y26	Z26	X27	Y27	Z27	X28	Y28	Z28	X29	Y29	Z29	X30	Y30	Z30	X31	Y31	Z31	X32	Y32	Z32	X33	Y33	Z33	X34	Y34	Z34	X35	Y35	Z35	X36	Y36	Z36

215	0.85600	-391.59674	1015.52887	485.41672	-223.45911	970.53027	371.66193	-323.63651	801.62720	293.33481	-315.53790	739.94965	283.10382	-249.30884	802.40540	305.08899	-250.43385	742.10791	293.74402	-325.57089	481.57590	296.16434	-333.40747	447.75443	407.12067	-399.35410	377.79712	264.30420	-391.76678	335.29822	259.87299	-334.65213	383.26877	262.21912	-337.84253	339.38373	257.76602	-358.28381	92.87160	269.64999	-347.14893	97.69070	348.42297	-421.98157	66.55773	312.81180	-247.53867	30.69255	238.10425	-195.65663	55.65527	306.02866	-220.98564	35.94464	352.12088	-387.98682	1012.69733	557.89636	-198.56793	969.19391	612.64160	-289.73474	791.98346	708.95862	-282.80383	729.16217	710.07477	-217.97260	792.49524	686.20984	-221.20461	729.86096	691.62360	-303.97937	462.91745	689.72601	-299.02597	463.11420	579.35059	-362.91580	393.15033	717.03552	-359.97061	345.38818	723.68634	-303.10699	386.45944	709.72943	-309.10858	340.62085	715.96387	-337.06885	91.25594	698.68762	-317.50296	105.35217	620.04041	-400.40964	62.48145	656.76709	-197.84972	45.03041	622.23370	-176.11908	53.13620	661.44769	-219.52963	29.00953	728.75604
216	0.86000	-391.58917	1015.51746	485.42010	-223.44884	970.56122	371.65784	-323.62027	801.64648	293.32645	-315.54578	739.96515	283.10165	-249.28882	802.43341	305.11215	-250.40005	742.13898	293.73572	-325.57602	481.57953	296.15570	-333.39874	447.73560	407.11603	-399.38727	377.81494	264.32135	-391.77151	335.29941	259.86282	-334.64825	383.28983	262.21466	-337.82608	339.38016	257.75671	-358.25916	92.88409	269.65085	-347.13898	97.68620	348.41229	-421.97250	66.58900	312.81992	-247.53717	30.70078	238.11139	-195.58447	55.71606	306.02298	-220.96236	35.95499	352.12958	-387.97397	1012.67145	557.88788	-198.54854	969.21906	612.63562	-289.72989	791.98511	708.96240	-282.77582	729.16541	710.07996	-217.97720	792.47961	686.20020	-221.15910	729.86548	691.60645	-303.96600	462.93341	689.71582	-298.69312	463.20929	578.95074	-363.00934	393.06516	717.07581	-359.94336	345.38147	723.68909	-303.10416	386.47952	709.73419	-309.08710	340.62045	715.95819	-337.04080	91.27129	698.68671	-317.48831	105.36561	620.03967	-400.40213	62.53085	656.79883	-197.82004	45.05667	622.24451	-176.08395	53.17267	661.44556	-219.47716	29.02872	728.74835
217	0.86400	-391.57126	1015.50189	485.39551	-223.49068	970.56079	371.65451	-323.65219	801.63879	293.32498	-315.56458	739.97504	283.10623	-249.29088	802.44415	305.08804	-250.44106	742.12555	293.73172	-325.56091	481.58640	296.15262	-333.36862	447.70142	407.11404	-399.38785	377.81628	264.31812	-391.81110	335.32581	259.92355	-334.64929	383.27112	262.22711	-337.85657	339.36835	257.74725	-358.25043	92.89588	269.65036	-347.10703	97.67165	348.41730	-421.99960	66.61889	312.80704	-247.51698	30.69090	238.10963	-195.57318	55.74841	306.04022	-220.96416	35.97806	352.12695	-387.96625	1012.65936	557.88953	-198.56621	969.20648	612.64404	-289.72198	791.97400	708.95660	-282.79016	729.17017	710.06946	-217.94972	792.51428	686.17706	-221.19156	729.85785	691.61786	-303.95901	462.93527	689.70215	-299.02417	463.11182	579.34290	-362.98871	393.05417	717.07941	-359.97672	345.40976	723.65778	-303.10281	386.48486	709.73425	-309.09616	340.62296	715.94818	-337.03265	91.26074	698.69098	-317.46365	105.37123	620.02899	-400.42035	62.56107	656.76031	-197.82495	45.05629	622.22534	-176.07080	53.18091	661.45819	-219.47397	29.03262	728.74176
218	0.86800	-391.56357	1015.48480	485.39389	-223.50014	970.54431	371.65726	-323.65451	801.63660	293.31918	-315.57703	739.95270	283.08804	-249.30159	802.41974	305.10382	-250.45009	742.10712	293.73486	-325.55356	481.56149	296.15146	-333.37592	447.67270	407.12524	-399.38556	377.81512	264.30417	-391.77264	335.32452	259.89182	-334.64899	383.27142	262.22519	-337.84531	339.36148	257.75320	-358.23663	92.88087	269.63712	-347.10141	97.67721	348.41562	-422.01617	66.63610	312.79965	-247.50546	30.67249	238.10373	-195.59760	55.67548	306.02039	-220.95056	35.95568	352.10757	-387.97659	1012.66553	557.88947	-198.57355	969.20129	612.63239	-289.72363	791.96967	708.94165	-282.80756	729.15057	710.05988	-217.97260	792.48053	686.17517	-221.19926	729.83911	691.61523	-303.97583	462.92969	689.70721	-299.01462	463.08252	579.34564	-362.99323	393.03104	717.06830	-359.93509	345.39200	723.67047	-303.10849	386.47781	709.72717	-309.10556	340.61334	715.95538	-337.00522	91.24290	698.68286	-317.42920	105.35871	620.03638	-400.41876	62.55613	656.73987	-197.81502	45.04828	622.22290	-176.07231	53.16029	661.44781	-219.48378	29.01132	728.75616
219	0.87200	-391.60706	1015.49371	485.40683	-223.50742	970.54834	371.62985	-323.62793	801.63904	293.29794	-315.56750	739.95270	283.08603	-249.31888	802.40741	305.08435	-250.46451	742.09784	293.70731	-325.56107	481.55936	296.14511	-333.37723	447.64963	407.11584	-399.38202	377.80252	264.29758	-391.73691	335.36163	259.82422	-334.64511	383.24182	262.21265	-337.83707	339.34009	257.74084	-358.24451	92.86047	269.63916	-347.08755	97.66921	348.40979	-421.97684	66.59819	312.76199	-247.51369	30.65460	238.09590	-195.57185	55.66722	306.01776	-220.96313	35.93754	352.11804	-387.96225	1012.65424	557.87396	-198.56258	969.18860	612.61749	-289.72385	791.95715	708.93616	-282.77109	729.15460	710.05841	-217.95198	792.50482	686.14160	-221.18414	729.84967	691.59210	-303.95428	462.91437	689.68512	-299.00583	463.05981	579.33405	-362.98874	393.01474	717.04828	-359.93268	345.37579	723.64154	-303.07852	386.45316	709.70764	-309.09576	340.59790	715.95245	-336.99396	91.24127	698.67133	-317.42697	105.34788	620.01642	-400.42773	62.53060	656.72235	-197.82838	45.02071	622.20203	-176.04932	53.14423	661.42590	-219.49234	29.01554	728.73578
220	0.87600	-391.63925	1015.49512	485.38394	-223.50520	970.52521	371.61136	-323.61417	801.63007	293.27820	-315.57025	739.93591	283.05441	-249.34068	802.38617	305.05963	-250.49420	742.08435	293.70120	-325.55533	481.55524	296.13467	-333.41116	447.64175	407.10388	-399.37723	377.77048	264.28430	-391.80966	335.27652	259.87527	-334.65414	383.22577	262.19794	-337.85617	339.30646	257.74033	-358.23224	92.82455	269.62079	-347.06696	97.64606	348.39987	-421.95575	66.56210	312.73694	-247.51665	30.61614	238.09390	-195.67397	55.86381	305.99426	-220.95518	35.91505	352.09744	-387.99890	1012.65558	557.86426	-198.56654	969.17944	612.59845	-289.69165	791.97375	708.94354	-282.76321	729.15381	710.05859	-217.93866	792.48187	686.15161	-221.17400	729.83295	691.57074	-303.94421	462.91174	689.68829	-299.05112	462.99887	579.33643	-362.97977	393.00732	717.05902	-359.90521	345.37305	723.66937	-303.09152	386.44925	709.70361	-309.09406	340.58246	715.92926	-336.95837	91.24422	698.67023	-317.43329	105.32896	620.00616	-400.43854	62.48918	656.69757	-198.01169	44.76740	622.43561	-176.06546	53.11812	661.41150	-219.44963	28.97993	728.72369
221	0.88000	-391.63718	1015.48145	485.38370	-223.52083	970.51172	371.59576	-323.62402	801.62494	293.26218	-315.55969	739.92761	283.03839	-249.36351	802.38403	305.05310	-250.52438	742.06384	293.69022	-325.57257	481.52505	296.13452	-333.40579	447.63446	407.10461	-399.39404	377.77548	264.27499	-391.75629	335.27075	259.77371	-334.65967	383.19055	262.19751	-337.86804	339.30493	257.70670	-358.22784	92.78730	269.61099	-347.03912	97.65998	348.39877	-421.94189	66.51133	312.69812	-247.55078	30.58657	238.08423	-195.66464	55.80994	305.99078	-220.94368	35.90177	352.08563	-387.99658	1012.62360	557.87689	-198.57268	969.15771	612.58447	-289.66870	791.96344	708.92255	-282.73593	729.15826	710.05463	-217.94937	792.48663	686.13000	-221.15378	729.82422	691.56750	-303.93741	462.91129	689.67853	-298.66846	463.08179	578.90710	-362.98364	392.98615	717.04443	-359.89282	345.37054	723.66797	-303.10202	386.44983	709.70520	-309.08246	340.57745	715.93506	-336.97900	91.22307	698.67114	-317.46039	105.31320	620.00073	-400.39102	62.45720	656.67365	-197.82689	44.98902	622.17365	-176.07043	53.08454	661.40735	-219.43637	29.00711	728.71222
